<?xml version="1.0" encoding="utf-8"?>
<!-- Generator: Adobe Illustrator 25.2.1, SVG Export Plug-In . SVG Version: 6.00 Build 0)  -->
<svg version="1.1" id="company_name" xmlns="http://www.w3.org/2000/svg" xmlns:xlink="http://www.w3.org/1999/xlink" x="0px"
	 y="0px" viewBox="0 0 595.28 841.89" style="enable-background:new 0 0 595.28 841.89;" xml:space="preserve">
<style type="text/css">
	.st0{fill:#37B1AC;}
	.st1{fill:#FFFFFF;}
</style>
<g>
	
		<ellipse transform="matrix(0.7071 -0.7071 0.7071 0.7071 -136.1356 387.2028)" class="st0" cx="399.33" cy="357.93" rx="21.97" ry="21.97"/>
	<g>
		<path class="st1" d="M399.89,353.62c1.96,0,3.55-1.59,3.55-3.55c0-1.95-1.59-3.54-3.55-3.54s-3.55,1.59-3.55,3.54
			C396.34,352.03,397.93,353.62,399.89,353.62L399.89,353.62z M399.89,347.54c1.4,0,2.53,1.14,2.53,2.53c0,1.4-1.14,2.53-2.53,2.53
			s-2.53-1.14-2.53-2.53C397.35,348.68,398.49,347.54,399.89,347.54L399.89,347.54z M399.89,347.54"/>
		<path class="st1" d="M399.8,368.19l7.77-11.23c2.91-3.89,2.49-10.27-0.9-13.67c-1.84-1.84-4.27-2.85-6.87-2.85
			c-2.59,0-5.04,1.01-6.87,2.84c-3.4,3.4-3.82,9.78-0.92,13.65L399.8,368.19z M393.64,344.01c1.64-1.64,3.83-2.55,6.15-2.55
			c2.32,0,4.51,0.9,6.15,2.55c3.06,3.06,3.44,8.83,0.8,12.36l-6.95,10.04l-6.96-10.05C390.2,352.84,390.58,347.08,393.64,344.01
			L393.64,344.01z M393.64,344.01"/>
		<path class="st1" d="M406.03,362.24c-0.28-0.03-0.53,0.17-0.56,0.44c-0.03,0.28,0.17,0.53,0.45,0.56
			c5.33,0.63,8.16,2.32,8.16,3.29c0,1.38-5.39,3.29-14.18,3.29s-14.18-1.92-14.18-3.29c0-0.98,2.84-2.67,8.16-3.29
			c0.28-0.03,0.48-0.29,0.45-0.56c-0.03-0.28-0.28-0.48-0.56-0.44c-5.33,0.63-9.06,2.4-9.06,4.3c0,2.14,5.22,4.31,15.2,4.31
			s15.2-2.17,15.2-4.31C415.08,364.63,411.36,362.86,406.03,362.24L406.03,362.24z M406.03,362.24"/>
	</g>
</g>
</svg>
