<?xml version="1.0" encoding="utf-8"?>
<!-- Generator: Adobe Illustrator 25.2.1, SVG Export Plug-In . SVG Version: 6.00 Build 0)  -->
<svg version="1.1" xmlns="http://www.w3.org/2000/svg" xmlns:xlink="http://www.w3.org/1999/xlink" x="0px" y="0px"
	 viewBox="0 0 595.28 841.89" style="enable-background:new 0 0 595.28 841.89;" xml:space="preserve">
<style type="text/css">
	.st0{fill:#37B1AC;}
</style>
<g id="company_name">
	<g>
		<path class="st0" d="M274.08,207.26c-2.48-0.99-4.33-2.04-5.54-3.17c-1.21-1.13-1.82-1.8-1.82-2.03l3.21-4.91
			c0,0.11,0.55,0.63,1.65,1.56s2.59,1.79,4.48,2.58c1.89,0.79,4.07,1.18,6.56,1.18c2.65,0,4.71-0.7,6.17-2.11
			c1.47-1.41,2.2-3.27,2.2-5.58c0-1.47-0.39-2.75-1.18-3.85c-0.79-1.1-1.76-2.03-2.92-2.79c-1.16-0.76-2.78-1.73-4.86-2.92
			c-2.71-1.41-4.94-2.76-6.68-4.06c-1.75-1.3-3.24-2.99-4.48-5.08c-1.24-2.09-1.86-4.65-1.86-7.7c0-3.33,0.76-6.23,2.28-8.71
			c1.52-2.48,3.64-4.38,6.34-5.71c2.71-1.32,5.78-1.99,9.22-1.99c2.25,0,4.38,0.28,6.39,0.85c2,0.56,3.69,1.2,5.08,1.9
			c1.38,0.71,2.07,1.09,2.07,1.14l-1.35,5.75c-0.28-0.17-0.97-0.55-2.07-1.14c-1.1-0.59-2.5-1.17-4.19-1.73
			c-1.69-0.56-3.41-0.85-5.16-0.85c-2.14,0-3.86,0.61-5.16,1.82c-1.3,1.21-1.95,2.89-1.95,5.03c0,2.37,0.76,4.26,2.28,5.67
			c1.52,1.41,3.86,2.96,7.02,4.65c2.82,1.52,5.08,2.91,6.77,4.15c1.69,1.24,3.14,2.92,4.36,5.03c1.21,2.12,1.82,4.75,1.82,7.91
			c0,3.44-0.86,6.4-2.58,8.88c-1.72,2.48-4.05,4.39-6.98,5.71c-2.93,1.32-6.21,1.99-9.81,1.99
			C279.66,208.74,276.56,208.25,274.08,207.26z"/>
		<path class="st0" d="M312.48,207.81v-26.05l-4.4,3.3l-2.37-3.3l6.77-5.16V144.7l11.25-0.68v24.02l6.09-4.65l2.45,3.21l-8.54,6.51
			v34.68H312.48z"/>
		<path class="st0" d="M338.07,202.99c-3.41-3.83-5.12-9.28-5.12-16.33c0-7.05,1.71-12.49,5.12-16.33
			c3.41-3.83,8.28-5.75,14.59-5.75c6.37,0,11.26,1.92,14.68,5.75c3.41,3.84,5.12,9.28,5.12,16.33c0,6.99-1.76,12.42-5.29,16.28
			c-3.53,3.86-8.36,5.79-14.51,5.79C346.35,208.74,341.48,206.82,338.07,202.99z M357.1,201.55c1.1-1.07,1.9-2.79,2.41-5.16
			c0.51-2.37,0.76-5.61,0.76-9.73c0-4.12-0.25-7.36-0.76-9.73s-1.3-4.07-2.37-5.12c-1.07-1.04-2.57-1.56-4.48-1.56
			c-1.92,0-3.41,0.52-4.48,1.56c-1.07,1.04-1.86,2.75-2.37,5.12s-0.76,5.58-0.76,9.64c0,4.12,0.25,7.37,0.76,9.77
			c0.51,2.4,1.31,4.13,2.41,5.2c1.1,1.07,2.58,1.61,4.44,1.61C354.52,203.16,356,202.62,357.1,201.55z"/>
		<path class="st0" d="M387.51,207.81l-12.1-42.3h12.77l6.18,28.17h0.25l8.04-28.17h7.7l8.88,28.17h0.25l6.85-28.17h7.28
			l-12.44,42.3h-8.97l-7.61-27.58v-0.08h-0.25l-7.87,27.66H387.51z"/>
		<path class="st0" d="M439.2,165.51h9.05l1.44,3.47h0.34c0-0.11,0.47-0.54,1.4-1.27c0.93-0.73,2.27-1.42,4.02-2.07
			c1.75-0.65,3.92-0.97,6.51-0.97c4.34,0,7.6,1.17,9.77,3.51c2.17,2.34,3.26,5.99,3.26,10.96v28.68h-11.25v-26.39
			c0-3.78-0.41-6.34-1.23-7.7s-2.3-2.03-4.44-2.03c-1.47,0-2.76,0.23-3.89,0.68c-1.13,0.45-2.03,0.94-2.71,1.48
			c-0.68,0.54-1.02,0.83-1.02,0.89v33.08H439.2V165.51z"/>
		<path class="st0" d="M487.29,203.54c-3.47-3.47-5.2-8.84-5.2-16.12c0-7.33,1.69-12.96,5.08-16.88c3.38-3.92,7.95-5.88,13.7-5.88
			c5.24,0,9.32,1.65,12.22,4.95c2.9,3.3,4.36,8.02,4.36,14.17c0,1.41-0.1,2.59-0.3,3.55c-0.2,0.96-0.33,1.55-0.38,1.78h-22.76
			c0.06,5.08,0.8,8.67,2.24,10.79c1.44,2.11,3.76,3.17,6.98,3.17c1.92,0,3.61-0.41,5.08-1.23c1.47-0.82,2.62-1.72,3.47-2.71
			c0.85-0.99,1.27-1.54,1.27-1.65l3.81,2.96c0,0.23-0.58,1.04-1.73,2.45c-1.16,1.41-2.85,2.74-5.08,3.98
			c-2.23,1.24-4.95,1.86-8.16,1.86C495.62,208.74,490.76,207.01,487.29,203.54z M506.96,183.62v-1.95c0-4.29-0.45-7.29-1.35-9.01
			c-0.9-1.72-2.48-2.58-4.74-2.58c-1.58,0-2.83,0.4-3.76,1.18c-0.93,0.79-1.65,2.16-2.16,4.1c-0.51,1.95-0.82,4.7-0.93,8.25H506.96z
			"/>
	</g>
	<g>
		<path d="M305.59,228.3h13.87c5.53,0,9.8,1.26,12.82,3.76c3.02,2.51,4.53,5.82,4.53,9.94c0,3.05-0.76,5.58-2.28,7.61
			s-3.41,3.64-5.67,4.82c3.27,0.9,5.85,2.48,7.74,4.74c1.89,2.26,2.83,5.1,2.83,8.54c0,4.96-1.65,8.8-4.95,11.5
			c-3.3,2.71-8.28,4.06-14.93,4.06h-13.96V228.3z M322,253.17c1.18,0,2.44-0.34,3.76-1.02c1.32-0.68,2.47-1.82,3.43-3.43
			c0.96-1.61,1.44-3.71,1.44-6.3c0-3.44-1.04-6.03-3.13-7.78c-2.09-1.75-4.85-2.62-8.29-2.62h-7.19v21.15H322z M319.29,279.57
			c9.19,0,13.79-4.03,13.79-12.1c0-3.61-0.99-6.32-2.96-8.12c-1.97-1.8-4.57-2.71-7.78-2.71h-10.32v22.92H319.29z"/>
		<path d="M349.58,281.38c-2.26-1.83-3.38-4.38-3.38-7.66c0-8.29,7.98-13.28,23.94-14.97v-4.48c0-4-0.65-6.74-1.95-8.21
			c-1.3-1.47-3.58-2.2-6.85-2.2c-1.47,0-2.96,0.27-4.48,0.8c-1.52,0.54-2.81,1.1-3.85,1.69c-1.04,0.59-1.71,0.97-1.99,1.14
			l-0.68-3.47c0.28-0.22,1-0.65,2.16-1.27c1.16-0.62,2.62-1.21,4.4-1.78c1.78-0.56,3.57-0.85,5.37-0.85c4.85,0,8.4,1.02,10.66,3.05
			c2.25,2.03,3.38,5.61,3.38,10.74v20.73c0,2.26,0.21,3.78,0.63,4.57c0.42,0.79,0.94,1.18,1.56,1.18c0.51,0,1.13-0.1,1.86-0.3
			c0.73-0.2,1.21-0.35,1.44-0.47l0.25,2.88c-0.45,0.17-1.41,0.48-2.88,0.93c-1.47,0.45-2.71,0.68-3.72,0.68
			c-1.47,0-2.59-0.46-3.38-1.4c-0.79-0.93-1.27-2.58-1.44-4.95h-0.08c0,0.23-0.45,0.88-1.35,1.95c-0.9,1.07-2.24,2.07-4.02,3
			s-3.99,1.4-6.64,1.4C354.82,284.13,351.83,283.22,349.58,281.38z M365.65,279.06c1.47-0.9,2.58-1.89,3.34-2.96
			c0.76-1.07,1.14-1.69,1.14-1.86v-12.35c-5.13,0.56-9.35,1.66-12.65,3.3c-3.3,1.64-4.95,4.23-4.95,7.78c0,2.43,0.7,4.27,2.11,5.54
			c1.41,1.27,3.33,1.9,5.75,1.9C362.44,280.41,364.18,279.96,365.65,279.06z"/>
		<path d="M399.83,282.82c-1.81-0.93-3.16-1.87-4.06-2.83l-1.18,3.3h-4.4v-63.28l6.17-0.34v26.14h0.08c0-0.17,0.41-0.75,1.23-1.73
			c0.82-0.99,2.06-1.9,3.72-2.75c1.66-0.85,3.76-1.27,6.3-1.27c5.02,0,9.05,1.85,12.1,5.54c3.05,3.69,4.57,8.81,4.57,15.35
			c0,7.11-1.5,12.76-4.48,16.96c-2.99,4.2-7.3,6.3-12.94,6.3C404,284.22,401.63,283.75,399.83,282.82z M414.84,275.38
			c2-3.19,3-7.94,3-14.25c0-5.86-1.02-10.16-3.05-12.9c-2.03-2.73-4.99-4.1-8.88-4.1c-2.82,0-4.99,0.73-6.51,2.2
			c-1.52,1.47-2.54,2.76-3.05,3.89v26.14c0.39,0.73,1.35,1.55,2.88,2.45c1.52,0.9,3.55,1.35,6.09,1.35
			C409.67,280.16,412.84,278.57,414.84,275.38z"/>
		<path d="M433.75,283.29v-63.28l6.18-0.34v40.69l5.16-3.55l12.6-15.82h4.65l-13.96,17.34l15.73,24.96h-7.02l-13.45-21.32
			l-3.72,2.28v19.03H433.75z"/>
		<path d="M473,231.52c-0.73-0.73-1.1-1.64-1.1-2.71c0-1.07,0.37-1.97,1.1-2.71c0.62-0.62,1.44-0.93,2.45-0.93
			c1.07,0,1.92,0.28,2.54,0.85c0.68,0.73,1.01,1.66,1.01,2.79c0,1.02-0.34,1.92-1.01,2.71c-0.79,0.62-1.64,0.93-2.54,0.93
			C474.44,232.45,473.62,232.14,473,231.52z M472.32,283.29v-42.3h6.18v42.3H472.32z"/>
	</g>
</g>
<g id="graphic">
	<path id="cloth_1_" class="st0" d="M205.48,238.5L178.84,212h-30.8l-26.66,26.52h-0.77c0,0,15.04-89.77,14.92-89.11l54.65-0.01
		L205.48,238.5z"/>
	<rect id="legs_1_" x="161.35" y="253.81" width="5.62" height="85.39"/>
	
		<rect id="left_arm_1_" x="112.81" y="220.93" transform="matrix(0.7076 -0.7066 0.7066 0.7076 -119.4323 158.8667)" width="38.86" height="5.62"/>
	<path id="head_1_" d="M164.53,146.71c-18.5,0-33.55-15.05-33.55-33.55s15.05-33.55,33.55-33.55c18.5,0,33.55,15.05,33.55,33.55
		S183.03,146.71,164.53,146.71z M164.53,85.23c-15.4,0-27.93,12.53-27.93,27.93s12.53,27.93,27.93,27.93s27.93-12.53,27.93-27.93
		S179.93,85.23,164.53,85.23z"/>
	<path id="hair_1_" d="M198.91,109.08c-6.21-0.06-16.57-0.96-28.21-6.2c-6.87-3.1-12.47-6.87-16.73-10.48
		c-4.99,4.34-9.75,10.31-12.47,18.31c-3.77,11.33-1.72,21.41-0.5,25.92c-1-1.07-12.47-13.86-8.7-30.99
		c0.44-2.03,3.21-13.58,14.07-20.57c-0.06-0.06,8.64-5.52,16.79-5.92c14.24-0.73,23.83,8.68,25.93,10.88
		C195.97,97.13,198.13,105.31,198.91,109.08z"/>
	<path id="body_1_" d="M164.44,350.71l-49.57-111.52l15.9-95.4h63.91l16.36,95.36l-0.32,0.75L164.44,350.71z M120.68,238.45
		l43.59,98.07l40.94-98.03l-15.28-89.08h-54.41L120.68,238.45z"/>
	
		<rect id="right_arm_1_" x="190.89" y="204.31" transform="matrix(0.7066 -0.7076 0.7076 0.7066 -101.489 202.7094)" width="5.62" height="38.86"/>
</g>
</svg>
