<?xml version="1.0" encoding="utf-8"?>
<!-- Generator: Adobe Illustrator 25.2.1, SVG Export Plug-In . SVG Version: 6.00 Build 0)  -->
<svg version="1.1" id="company_name" xmlns="http://www.w3.org/2000/svg" xmlns:xlink="http://www.w3.org/1999/xlink" x="0px"
	 y="0px" viewBox="0 0 595.28 841.89" style="enable-background:new 0 0 595.28 841.89;" xml:space="preserve">
<style type="text/css">
	.st0{fill:#37B1AC;}
	.st1{fill:#FFFFFF;}
</style>
<g>
	<circle class="st0" cx="290.9" cy="362.66" r="21.97"/>
	<path class="st1" d="M304.22,352.38c-0.1-0.13-0.27-0.19-0.44-0.17c-0.04,0-0.07,0.01-0.11,0.02l-28.28,7.69
		c-0.21,0.06-0.35,0.24-0.36,0.46c0,0.21,0.13,0.41,0.34,0.48l10.35,3.39l-0.93,7.4c-0.02,0.2,0.07,0.39,0.24,0.48
		c0.07,0.04,0.16,0.06,0.24,0.06c0.1,0,0.21-0.03,0.3-0.1l3.79-2.9l3.32,4.74c0.09,0.13,0.24,0.21,0.4,0.21c0.01,0,0.02,0,0.03,0
		c0.17-0.01,0.32-0.11,0.4-0.26l10.76-20.97C304.37,352.74,304.35,352.53,304.22,352.38L304.22,352.38z M300.84,354.01l-14.65,9.35
		l-8.96-2.94L300.84,354.01z M285.91,370.61l0.67-5.39l2.22,3.17L285.91,370.61z M293.02,372.71l-6.07-8.67l15.65-10L293.02,372.71z
		 M293.02,372.71"/>
</g>
</svg>
