<?xml version="1.0" encoding="utf-8"?>
<!-- Generator: Adobe Illustrator 25.2.1, SVG Export Plug-In . SVG Version: 6.00 Build 0)  -->
<svg version="1.1" id="Isolation_Mode" xmlns="http://www.w3.org/2000/svg" xmlns:xlink="http://www.w3.org/1999/xlink" x="0px"
	 y="0px" viewBox="0 0 595.28 841.89" style="enable-background:new 0 0 595.28 841.89;" xml:space="preserve">
<style type="text/css">
	.st0{fill:#37B1AC;}
	.st1{fill:#FFFFFF;}
</style>
<g>
	<circle class="st0" cx="345.7" cy="355.95" r="21.97"/>
	<path id="XMLID_6429_" class="st1" d="M333.03,344.61c-0.13,0.14-0.25,0.29-0.36,0.45c-1.01,0.9-1.81,2.87-1.34,5.3
		c2.02,10.52,10.88,18.54,21.55,19.5c0.23,0.02,0.46,0.03,0.68,0.03c1.23,0,2.38-0.3,3.3-0.87c0.44-0.26,0.84-0.58,1.18-0.95
		l0.92-1.01c1.79-1.98,1.63-5.04-0.34-6.83l-1.55-1.4c-0.89-0.81-2.04-1.25-3.24-1.25c-1.36,0-2.67,0.58-3.59,1.59l-0.92,1.01
		c-0.36,0.4-0.64,0.84-0.85,1.33c-3.65-1.54-6.65-4.28-8.5-7.78c0.67-0.27,1.28-0.69,1.77-1.24l0.92-1.01
		c0.87-0.96,1.31-2.2,1.24-3.48c-0.06-1.29-0.63-2.48-1.58-3.34l-1.55-1.4c-0.89-0.81-2.04-1.25-3.24-1.25
		c-1.36,0-2.67,0.58-3.59,1.59L333.03,344.61z M334.87,344.43c0.68-0.75,1.65-1.18,2.66-1.18c0.89,0,1.75,0.33,2.41,0.93l1.55,1.4
		c0.71,0.64,1.13,1.53,1.18,2.48c0.05,0.96-0.28,1.88-0.92,2.59l-0.92,1.01c0,0,0,0,0,0c-0.44,0.49-1,0.84-1.62,1.03l-0.28,0.08
		c-0.18,0.05-0.32,0.18-0.39,0.35c-0.07,0.17-0.07,0.36,0.01,0.52l0.13,0.26c2.03,4.07,5.47,7.24,9.7,8.91l0.24,0.09
		c0.16,0.06,0.34,0.06,0.49-0.02c0.15-0.07,0.27-0.2,0.33-0.37l0.08-0.24c0.16-0.47,0.41-0.9,0.74-1.26l0.92-1.01
		c0.68-0.75,1.65-1.18,2.66-1.18c0.89,0,1.74,0.33,2.41,0.93l1.55,1.4c1.47,1.33,1.58,3.6,0.25,5.07l-0.92,1.01
		c-0.25,0.28-0.55,0.52-0.89,0.72c-0.88,0.54-2.03,0.78-3.24,0.67c-10.12-0.91-18.53-8.51-20.45-18.49
		c-0.41-2.09,0.36-3.63,0.97-4.15c0.02-0.02,0.04-0.04,0.06-0.05l0.04-0.05c0.02-0.02,0.04-0.04,0.05-0.06
		c0.09-0.13,0.18-0.25,0.29-0.36L334.87,344.43z"/>
</g>
</svg>
