<?xml version="1.0" encoding="utf-8"?>
<!-- Generator: Adobe Illustrator 25.2.1, SVG Export Plug-In . SVG Version: 6.00 Build 0)  -->
<svg version="1.1" id="company_name" xmlns="http://www.w3.org/2000/svg" xmlns:xlink="http://www.w3.org/1999/xlink" x="0px"
	 y="0px" viewBox="0 0 595.28 841.89" style="enable-background:new 0 0 595.28 841.89;" xml:space="preserve">
<style type="text/css">
	.st0{fill:#37B1AC;}
	.st1{fill:#FFFFFF;}
</style>
<g>
	
		<ellipse transform="matrix(0.7071 -0.7071 0.7071 0.7071 -270.72 474.256)" class="st0" cx="437.12" cy="563.92" rx="21.97" ry="21.97"/>
	<g>
		<path class="st1" d="M445.32,551.77l0.02-0.01l-0.6-0.37c-0.04-0.02-0.07-0.04-0.11-0.06c-0.2-0.12-0.4-0.23-0.6-0.34
			c-0.1-0.06-0.21-0.11-0.31-0.16c-0.15-0.08-0.31-0.15-0.47-0.22c-0.09-0.04-0.18-0.08-0.28-0.12c-0.24-0.1-0.49-0.2-0.74-0.29
			c-0.05-0.02-0.1-0.03-0.16-0.05c-0.22-0.08-0.44-0.15-0.66-0.21c-0.07-0.02-0.14-0.04-0.22-0.06c-0.25-0.07-0.5-0.13-0.75-0.18
			c-0.02,0-0.05-0.01-0.07-0.02c-0.28-0.06-0.56-0.11-0.85-0.15c-0.06-0.01-0.13-0.02-0.19-0.02c-0.22-0.03-0.45-0.05-0.68-0.07
			c-0.08-0.01-0.15-0.01-0.23-0.02c-0.28-0.02-0.57-0.03-0.86-0.03c-0.31,0-0.62,0.01-0.92,0.04c-0.08,0-0.16,0.01-0.24,0.02
			c-0.29,0.02-0.57,0.06-0.85,0.1c-0.03,0-0.06,0.01-0.08,0.01c-0.28,0.04-0.56,0.1-0.84,0.16c-0.09,0.02-0.18,0.04-0.28,0.06
			c-0.26,0.06-0.51,0.13-0.76,0.21c-0.08,0.02-0.16,0.05-0.24,0.08c-0.22,0.07-0.45,0.15-0.66,0.24c-0.1,0.04-0.2,0.08-0.3,0.12
			c-0.25,0.1-0.5,0.21-0.74,0.33c-0.08,0.04-0.16,0.08-0.24,0.12c-0.19,0.1-0.38,0.2-0.56,0.3c-0.09,0.05-0.18,0.1-0.28,0.16
			c-0.23,0.14-0.46,0.28-0.68,0.44c-0.03,0.02-0.06,0.04-0.09,0.06l-0.25,0.17l0,0.01c-3.41,2.48-5.63,6.5-5.63,11.03
			c0,7.52,6.12,13.65,13.64,13.65s13.64-6.12,13.64-13.65C451.23,558.35,448.89,554.24,445.32,551.77L445.32,551.77z M430.8,552.23
			c0.15-0.09,0.3-0.18,0.45-0.27c0.08-0.05,0.16-0.1,0.25-0.14c0.21-0.12,0.42-0.22,0.64-0.33c0.09-0.04,0.19-0.09,0.28-0.13
			c0.16-0.07,0.32-0.14,0.48-0.2c0.09-0.04,0.18-0.07,0.27-0.11c0.23-0.08,0.46-0.16,0.7-0.24c0.09-0.03,0.18-0.05,0.26-0.07
			c0.18-0.05,0.36-0.1,0.55-0.14c0.08-0.02,0.16-0.04,0.25-0.06c0.25-0.06,0.51-0.1,0.77-0.14c0.06-0.01,0.12-0.02,0.18-0.02
			c0.22-0.03,0.44-0.05,0.66-0.07c0.08,0,0.15-0.01,0.23-0.02c0.28-0.02,0.55-0.03,0.83-0.03c0.24,0,0.48,0.01,0.72,0.02
			c0.07,0,0.14,0.01,0.2,0.02c0.17,0.01,0.35,0.03,0.52,0.05c0.08,0.01,0.15,0.02,0.23,0.03c0.17,0.02,0.33,0.04,0.5,0.07
			c0.07,0.01,0.15,0.03,0.22,0.04c0.17,0.03,0.34,0.07,0.51,0.11c0.06,0.02,0.13,0.03,0.19,0.04c0.21,0.05,0.42,0.11,0.62,0.17
			c0.02,0.01,0.04,0.01,0.06,0.02c0.22,0.07,0.44,0.14,0.65,0.22c0.09,0.03,0.17,0.07,0.26,0.1c0.12,0.05,0.25,0.1,0.37,0.15
			c0.11,0.05,0.22,0.1,0.32,0.14c0.1,0.04,0.19,0.09,0.29,0.14c0.07,0.03,0.14,0.07,0.21,0.1c-1.74,0.7-2.82,1.55-4.03,3.12
			c-0.17,0.22-0.26,0.49-0.25,0.77c-0.1-0.25-0.26-0.44-0.46-0.58c-0.42-0.28-0.97-0.26-1.68,0.06l-0.13,0.01
			c-0.91,0.1-1.42,0.16-1.46,1.15c-0.02,0.5,0.25,1,0.69,1.26c0.11,0.07,0.23,0.12,0.35,0.14c0.01,0.04,0.03,0.09,0.06,0.13
			l0.18,0.25l0.29-0.05c0.25-0.04,0.46-0.05,0.6-0.05c-0.02,0.2,0.01,0.41,0.1,0.59c0.13,0.26,0.34,0.44,0.61,0.53
			c0.26,0.08,0.28,0.16,0.31,0.26c0.15,0.5,0.48,0.87,0.91,1.02c0.41,0.14,0.87,0.05,1.26-0.24c0.24-0.18,0.37-0.14,0.88,0.11
			c0.33,0.16,0.75,0.36,1.29,0.43c0.09,0.01,0.14,0.04,0.16,0.06c0.37,0.39,0.65,0.87,0.93,1.34c0.42,0.72,0.82,1.39,1.5,1.75
			c0.54,0.28-0.06,1.85-0.35,2.6c-0.06,0.15-0.11,0.29-0.16,0.42c-0.69,0.53-1.11,1.14-1.53,1.73c-0.37,0.53-0.75,1.07-1.33,1.57
			c-0.89,0.77-1.64,1.22-2.51,1.53c-0.14,0.05-0.24-0.04-0.27-0.08c-0.03-0.04-0.1-0.14-0.03-0.26c0.9-1.61,1.94-3.87,0.59-4.99
			c-1.32-1.09-1.81-2.67-1.26-4.03c0.23-0.58-0.03-1.22-0.61-1.53c-0.05-0.06-0.09-0.32-0.11-0.5c-0.05-0.38-0.12-0.86-0.4-1.28
			c-0.12-0.17-0.33-0.33-0.47-0.4c-0.56-0.27-1.09-0.35-1.6-0.42c-0.41-0.06-0.8-0.12-1.19-0.27c-1.51-0.58-2.58-3.02-3.36-4.81
			c-0.11-0.26-0.22-0.5-0.32-0.73C430.69,552.3,430.75,552.27,430.8,552.23L430.8,552.23z M437.59,575.74
			c-7.02,0-12.73-5.71-12.73-12.73c0-4.13,1.97-7.8,5.03-10.13c0.08,0.18,0.16,0.37,0.25,0.56c0.89,2.04,2.01,4.58,3.87,5.29
			c0.49,0.19,0.95,0.26,1.39,0.32c0.47,0.07,0.91,0.13,1.34,0.34c0.03,0.02,0.11,0.07,0.12,0.1c0.16,0.24,0.21,0.57,0.25,0.89
			c0.06,0.44,0.12,0.94,0.57,1.17c0.15,0.08,0.27,0.23,0.21,0.39c-0.71,1.73-0.11,3.73,1.52,5.07c0.42,0.35,0.62,1.29-0.8,3.84
			c-0.24,0.42-0.18,0.93,0.13,1.3c0.22,0.27,0.55,0.41,0.88,0.41c0.13,0,0.26-0.02,0.39-0.07c0.98-0.35,1.82-0.86,2.8-1.7
			c0.68-0.58,1.09-1.17,1.49-1.74c0.4-0.58,0.78-1.12,1.41-1.58c0.09-0.07,0.16-0.16,0.2-0.26c0.05-0.14,0.11-0.31,0.18-0.5
			c0.47-1.23,1.18-3.08-0.08-3.73c-0.45-0.23-0.77-0.78-1.13-1.4c-0.29-0.49-0.61-1.04-1.05-1.51c-0.17-0.18-0.41-0.3-0.7-0.33
			c-0.39-0.05-0.7-0.2-1.01-0.35c-0.5-0.24-1.12-0.54-1.82-0.02c-0.11,0.08-0.27,0.16-0.43,0.11c-0.15-0.05-0.26-0.2-0.33-0.41
			c-0.09-0.31-0.27-0.68-0.92-0.88c-0.03-0.01-0.05-0.03-0.06-0.06c-0.02-0.04-0.02-0.09,0-0.15c0.09-0.23,0.05-0.47-0.1-0.65
			c-0.16-0.2-0.45-0.3-0.86-0.3c-0.02-0.07-0.05-0.14-0.12-0.22l-0.28-0.25l-0.31,0.18c-0.08,0.05-0.17,0.04-0.27-0.02
			c-0.15-0.09-0.26-0.27-0.25-0.44c0-0.1,0.01-0.16,0.02-0.2c0.11-0.03,0.38-0.06,0.64-0.09l0.28-0.03l0.07-0.03
			c0.41-0.19,0.73-0.25,0.87-0.16c0.06,0.04,0.24,0.21,0.22,0.95l-0.01,0.4l0.4,0.06c0.52,0.08,0.9-0.02,1.14-0.3
			c0.25-0.28,0.29-0.71,0.13-1.25c-0.02-0.08,0-0.18,0.05-0.25c1.26-1.64,2.32-2.39,4.33-3.08c3.52,2.27,5.85,6.22,5.85,10.71
			C450.32,570.03,444.61,575.74,437.59,575.74L437.59,575.74z M437.59,575.74"/>
	</g>
</g>
</svg>
